:FULLY-SPECIFIED
:FORCE-ALL-JOINTS-BE-3DOF
:DEGREES
510
root -4.38423 14.8355 -41.4329 368.993 -7.14268 370.472
lfemur -35.8055 24.6766 -22.3664
ltibia 66.1262 0 0
lfoot -25.1579 29.0104 0
ltoes -2.71824 0 0
rfemur -31.207 -10.5106 13.0079
rtibia 73.9951 0 0
rfoot -6.56626 -11.8802 0
rtoes 14.3175 0 0
lowerback 16.561 -0.390187 -7.27269
upperback -0.33891 -1.64619 3.20016
thorax -9.39824 -0.357035 8.06533
lowerneck 4.0058 -14.9311 -16.0427
upperneck 2.41459 -21.1522 18.2692
head 3.97387 -10.8331 7.01656
lclavicle 8.66664e-15 -5.58973e-16 0
lhumerus -19.2172 -47.6693 93.4544
lradius 88.5358 0 0
lwrist 43.1518 0 0
lhand -8.74168 45.0137 0
lfingers 7.12502 0 0
lthumb 17.1949 74.2595 0
rclavicle 8.66664e-15 -5.58973e-16 0
rhumerus 49.0887 21.4394 -32.4667
rradius 92.2657 0 0
rwrist -20.1897 0 0
rhand -3.20632 -17.0795 0
rfingers 7.12502 0 0
rthumb 22.4256 -44.6927 0
511
root -4.46881 14.8209 -41.4672 368.049 -10.303 370.788
lfemur -33.9796 23.9146 -21.424
ltibia 65.6014 0 0
lfoot -24.8759 28.7441 0
ltoes -3.89834 0 0
rfemur -32.1865 -11.1959 12.7803
rtibia 73.6709 0 0
rfoot -6.50791 -10.7538 0
rtoes 14.0937 0 0
lowerback 16.6054 -0.275754 -7.34307
upperback -0.288142 -1.52353 3.07933
thorax -9.39128 -0.301203 7.94159
lowerneck 3.69715 -14.7598 -15.9328
upperneck 2.80115 -20.8918 17.8798
head 4.04349 -10.6889 6.88277
lclavicle 8.83935e-15 -7.81936e-16 0
lhumerus -21.7564 -45.9365 93.6936
lradius 89.293 0 0
lwrist 44.9532 0 0
lhand -9.08905 45.3466 0
lfingers 7.12502 0 0
lthumb 16.8608 74.6247 0
rclavicle 8.83935e-15 -7.81936e-16 0
rhumerus 47.058 20.4505 -33.7627
rradius 90.1599 0 0
rwrist -19.3485 0 0
rhand -4.39397 -17.1691 0
rfingers 7.12502 0 0
rthumb 21.285 -44.8981 0
512
root -4.55338 14.8063 -41.5014 367.029 -13.4719 371.042
lfemur -32.1227 23.1299 -20.4657
ltibia 65.0692 0 0
lfoot -24.5905 28.474 0
ltoes -5.09938 0 0
rfemur -33.1868 -11.8873 12.5466
rtibia 73.3359 0 0
rfoot -6.44629 -9.60844 0
rtoes 13.856 0 0
lowerback 16.6494 -0.158704 -7.4131
upperback -0.236764 -1.39746 2.95667
thorax -9.38397 -0.243831 7.81481
lowerneck 3.38583 -14.586 -15.8198
upperneck 3.18853 -20.6273 17.4842
head 4.11213 -10.5425 6.74704
lclavicle 9.03764e-15 -1.00601e-15 0
lhumerus -24.3396 -44.1825 93.9399
lradius 90.0633 0 0
lwrist 46.7732 0 0
lhand -9.43547 45.6837 0
lfingers 7.12502 0 0
lthumb 16.5277 74.994 0
rclavicle 9.03764e-15 -1.00601e-15 0
rhumerus 44.999 19.4454 -35.0748
rradius 88.0136 0 0
rwrist -18.5007 0 0
rhand -5.59384 -17.2727 0
rfingers 7.12502 0 0
rthumb 20.1328 -45.1194 0
513
root -4.63795 14.7917 -41.5356 365.943 -16.6416 371.241
lfemur -30.2418 22.3266 -19.4953
ltibia 64.5308 0 0
lfoot -24.3028 28.2012 0
ltoes -6.31641 0 0
rfemur -34.204 -12.5826 12.3077
rtibia 72.9917 0 0
rfoot -6.38187 -8.44889 0
rtoes 13.6055 0 0
lowerback 16.6929 -0.0394552 -7.48248
upperback -0.184996 -1.26842 2.83261
thorax -9.37633 -0.185124 7.6854
lowerneck 3.07306 -14.4104 -15.7043
upperneck 3.57511 -20.3597 17.0841
head 4.17946 -10.3944 6.60989
lclavicle 9.25947e-15 -1.2301e-15 0
lhumerus -26.9568 -42.4135 94.1925
lradius 90.8437 0 0
lwrist 48.6051 0 0
lhand -9.77914 46.0241 0
lfingers 7.12502 0 0
lthumb 16.1972 75.3662 0
rclavicle 9.25947e-15 -1.2301e-15 0
rhumerus 42.9192 18.4285 -36.3981
rradius 85.8344 0 0
rwrist -17.6485 0 0
rhand -6.80144 -17.3897 0
rfingers 7.12502 0 0
rthumb 18.9731 -45.3553 0
514
root -4.72253 14.7772 -41.5698 364.8 -19.8043 371.388
lfemur -28.3437 21.5084 -18.5168
ltibia 63.9874 0 0
lfoot -24.0139 27.9269 0
ltoes -7.54446 0 0
rfemur -35.2339 -13.2796 12.0646
rtibia 72.6402 0 0
rfoot -6.31509 -7.27976 0
rtoes 13.343 0 0
lowerback 16.7356 0.0815709 -7.5509
upperback -0.133056 -1.13687 2.70759
thorax -9.36842 -0.125287 7.55376
lowerneck 2.76002 -14.2334 -15.5868
upperneck 3.9593 -20.09 16.6808
head 4.24519 -10.2452 6.47182
lclavicle 9.50279e-15 -1.45308e-15 0
lhumerus -29.5982 -40.6357 94.4502
lradius 91.6311 0 0
lwrist 50.4421 0 0
lhand -10.1183 46.3671 0
lfingers 7.12502 0 0
lthumb 15.871 75.7403 0
rclavicle 9.50279e-15 -1.45308e-15 0
rhumerus 40.8262 17.4043 -37.7274
rradius 83.6302 0 0
rwrist -16.7937 0 0
rhand -8.01232 -17.5193 0
rfingers 7.12502 0 0
rthumb 17.8103 -45.6048 0
515
root -4.8071 14.7626 -41.604 363.609 -22.9522 371.491
lfemur -26.4355 20.6793 -17.5339
ltibia 63.4401 0 0
lfoot -23.7249 27.6521 0
ltoes -8.77855 0 0
rfemur -36.2728 -13.9761 11.8183
rtibia 72.2829 0 0
rfoot -6.24642 -6.10568 0
rtoes 13.0696 0 0
lowerback 16.7774 0.203955 -7.61805
upperback -0.0811643 -1.00323 2.58202
thorax -9.36028 -0.0645224 7.4203
lowerneck 2.44794 -14.0558 -15.4676
upperneck 4.33947 -19.8191 16.2757
head 4.30899 -10.0953 6.33332
lclavicle 9.76555e-15 -1.67385e-15 0
lhumerus -32.2539 -38.8555 94.7123
lradius 92.4227 0 0
lwrist 52.2777 0 0
lhand -10.4511 46.7117 0
lfingers 7.12502 0 0
lthumb 15.5509 76.1154 0
rclavicle 9.76555e-15 -1.67385e-15 0
rhumerus 38.7275 16.3773 -39.0577
rradius 81.4087 0 0
rwrist -15.9385 0 0
rhand -9.22199 -17.6608 0
rfingers 7.12502 0 0
rthumb 16.6488 -45.8665 0
516
root -4.89167 14.748 -41.6382 362.38 -26.0773 371.553
lfemur -24.5241 19.8433 -16.5505
ltibia 62.8904 0 0
lfoot -23.4372 27.378 0
ltoes -10.0137 0 0
rfemur -37.3165 -14.6697 11.5697
rtibia 71.9216 0 0
rfoot -6.1763 -4.93128 0
rtoes 12.7864 0 0
lowerback 16.818 0.327276 -7.68362
upperback -0.0295389 -0.86797 2.45633
thorax -9.35196 -0.00303563 7.28543
lowerneck 2.13801 -13.8781 -15.3473
upperneck 4.71403 -19.548 15.8702
head 4.37055 -9.94529 6.19491
lclavicle 1.00457e-14 -1.8913e-15 0
lhumerus -34.914 -37.079 94.9778
lradius 93.2155 0 0
lwrist 54.1051 0 0
lhand -10.7758 47.0572 0
lfingers 7.12502 0 0
lthumb 15.2387 76.4902 0
rclavicle 1.00457e-14 -1.8913e-15 0
rhumerus 36.6306 15.3518 -40.3841
rradius 79.1776 0 0
rwrist -15.0847 0 0
rhand -10.426 -17.8135 0
rfingers 7.12502 0 0
rthumb 15.4927 -46.1395 0
517
root -4.97625 14.7334 -41.6725 361.123 -29.172 371.582
lfemur -22.6165 19.0042 -15.5704
ltibia 62.3393 0 0
lfoot -23.1517 27.1058 0
ltoes -11.245 0 0
rfemur -38.3612 -15.3584 11.3198
rtibia 71.5578 0 0
rfoot -6.10518 -3.76119 0
rtoes 12.4943 0 0
lowerback 16.8574 0.451115 -7.74731
upperback 0.0216007 -0.731517 2.33096
thorax -9.3435 0.0589694 7.14957
lowerneck 1.83143 -13.7011 -15.2262
upperneck 5.08137 -19.2776 15.4659
head 4.42956 -9.79572 6.05709
lclavicle 1.03412e-14 -2.10433e-15 0
lhumerus -37.5687 -35.3126 95.2456
lradius 94.0063 0 0
lwrist 55.9178 0 0
lhand -11.0905 47.4027 0
lfingers 7.12502 0 0
lthumb 14.9359 76.8639 0
rclavicle 1.03412e-14 -2.10433e-15 0
rhumerus 34.5431 14.3324 -41.7015
rradius 76.9448 0 0
rwrist -14.2345 0 0
rhand -11.6199 -17.9767 0
rfingers 7.12502 0 0
rthumb 14.3464 -46.4225 0
518
root -5.06082 14.7188 -41.7067 359.847 -32.2283 371.582
lfemur -20.7197 18.1659 -14.5975
ltibia 61.7882 0 0
lfoot -22.8697 26.8364 0
ltoes -12.4675 0 0
rfemur -39.4029 -16.0399 11.0696
rtibia 71.1932 0 0
rfoot -6.03352 -2.60004 0
rtoes 12.1944 0 0
lowerback 16.8953 0.575051 -7.8088
upperback 0.0720354 -0.59432 2.20632
thorax -9.33494 0.121288 7.0131
lowerneck 1.52942 -13.5253 -15.1049
upperneck 5.43989 -19.0089 15.064
head 4.48571 -9.64711 5.92036
lclavicle 1.065e-14 -2.31183e-15 0
lhumerus -40.2081 -33.5624 95.5148
lradius 94.7923 0 0
lwrist 57.709 0 0
lhand -11.3935 47.7473 0
lfingers 7.12502 0 0
lthumb 14.6444 77.2354 0
rclavicle 1.065e-14 -2.31183e-15 0
rhumerus 32.4725 13.3235 -43.0048
rradius 74.718 0 0
rwrist -13.3897 0 0
rhand -12.7991 -18.1497 0
rfingers 7.12502 0 0
rthumb 13.2142 -46.7144 0
519
root -5.1454 14.7042 -41.7409 358.561 -35.2384 371.559
lfemur -18.8405 17.3324 -13.6355
ltibia 61.2383 0 0
lfoot -22.5924 26.5712 0
ltoes -13.6761 0 0
rfemur -40.4376 -16.712 10.82
rtibia 70.8295 0 0
rfoot -5.96177 -1.45247 0
rtoes 11.8876 0 0
lowerback 16.9316 0.698664 -7.86778
upperback 0.121546 -0.456824 2.08285
thorax -9.32633 0.183717 6.87646
lowerneck 1.23317 -13.3513 -14.9837
upperneck 5.78796 -18.7428 14.666
head 4.53868 -9.49999 5.78523
lclavicle 1.09701e-14 -2.51269e-15 0
lhumerus -42.8223 -31.8347 95.7845
lradius 95.5704 0 0
lwrist 59.4722 0 0
lhand -11.683 48.0901 0
lfingers 7.12502 0 0
lthumb 14.3659 77.6036 0
rclavicle 1.09701e-14 -2.51269e-15 0
rhumerus 30.4264 12.3295 -44.2891
rradius 72.5049 0 0
rwrist -12.5524 0 0
rhand -13.9593 -18.3318 0
rfingers 7.12502 0 0
rthumb 12.1003 -47.014 0
520
root -5.22997 14.6897 -41.7751 357.276 -38.1945 371.518
lfemur -16.9861 16.5076 -12.6882
ltibia 60.6907 0 0
lfoot -22.3208 26.311 0
ltoes -14.866 0 0
rfemur -41.4614 -17.3725 10.572
rtibia 70.4685 0 0
rfoot -5.89039 -0.323097 0
rtoes 11.5749 0 0
lowerback 16.9661 0.821535 -7.92395
upperback 0.169914 -0.319472 1.96097
thorax -9.31772 0.246052 6.74003
lowerneck 0.943882 -13.1798 -14.8631
upperneck 6.124 -18.4804 14.2734
head 4.58817 -9.35488 5.65219
lclavicle 1.12993e-14 -2.7058e-15 0
lhumerus -45.4015 -30.1359 96.0538
lradius 96.3376 0 0
lwrist 61.2005 0 0
lhand -11.9572 48.4304 0
lfingers 7.12502 0 0
lthumb 14.102 77.9675 0
rclavicle 1.12993e-14 -2.7058e-15 0
rhumerus 28.4124 11.3549 -45.5493
rradius 70.3133 0 0
rwrist -11.7245 0 0
rhand -15.0959 -18.5222 0
rfingers 7.12502 0 0
rthumb 11.0091 -47.3202 0
521
root -5.31454 14.6751 -41.8093 356 -41.0888 371.465
lfemur -15.1632 15.6954 -11.7596
ltibia 60.1468 0 0
lfoot -22.0562 26.0572 0
ltoes -16.0321 0 0
rfemur -42.4703 -18.0191 10.3266
rtibia 70.1116 0 0
rfoot -5.81983 0.783438 0
rtoes 11.2574 0 0
lowerback 16.9985 0.943243 -7.97701
upperback 0.216919 -0.18271 1.84112
thorax -9.30915 0.308087 6.60424
lowerneck 0.66277 -13.0113 -14.7435
upperneck 6.44639 -18.2224 13.8875
head 4.63386 -9.21234 5.52176
lclavicle 1.16357e-14 -2.89006e-15 0
lhumerus -47.9357 -28.472 96.3216
lradius 97.0909 0 0
lwrist 62.8875 0 0
lhand -12.2142 48.7673 0
lfingers 7.12502 0 0
lthumb 13.8546 78.3261 0
rclavicle 1.16357e-14 -2.89006e-15 0
rhumerus 26.4378 10.4041 -46.7804
rradius 68.151 0 0
rwrist -10.9081 0 0
rhand -16.2045 -18.7204 0
rfingers 7.12502 0 0
rthumb 9.94489 -47.6318 0
522
root -5.39912 14.6605 -41.8436 354.743 -43.9134 371.405
lfemur -13.3789 14.8996 -10.8535
ltibia 59.6078 0 0
lfoot -21.7997 25.8107 0
ltoes -17.1696 0 0
rfemur -43.4603 -18.6497 10.0847
rtibia 69.7607 0 0
rfoot -5.75053 1.8625 0
rtoes 10.936 0 0
lowerback 17.0288 1.06337 -8.02663
upperback 0.262343 -0.0469814 1.72371
thorax -9.30067 0.36962 6.46949
lowerneck 0.391035 -12.8466 -14.6255
upperneck 6.75353 -17.97 13.5098
head 4.67543 -9.07287 5.39443
lclavicle 1.19773e-14 -3.06435e-15 0
lhumerus -50.4151 -26.8495 96.587
lradius 97.8274 0 0
lwrist 64.5264 0 0
lhand -12.4524 49.0999 0
lfingers 7.12502 0 0
lthumb 13.6254 78.6783 0
rclavicle 1.19773e-14 -3.06435e-15 0
rhumerus 24.5104 9.48161 -47.9774
rradius 66.0257 0 0
rwrist -10.1051 0 0
rhand -17.2806 -18.9254 0
rfingers 7.12502 0 0
rthumb 8.91187 -47.9477 0
523
root -5.48369 14.6459 -41.8778 353.515 -46.6605 371.344
lfemur -11.6402 14.1243 -9.97364
ltibia 59.0749 0 0
lfoot -21.5525 25.5728 0
ltoes -18.2733 0 0
rfemur -44.4275 -19.2619 9.8472
rtibia 69.4173 0 0
rfoot -5.68296 2.90947 0
rtoes 10.6118 0 0
lowerback 17.0568 1.18149 -8.07252
upperback 0.305967 0.0872694 1.60917
thorax -9.29231 0.430446 6.33618
lowerneck 0.12988 -12.6862 -14.5094
upperneck 7.0438 -17.7239 13.1417
head 4.71258 -8.93702 5.27072
lclavicle 1.23218e-14 -3.22758e-15 0
lhumerus -52.8299 -25.2744 96.849
lradius 98.544 0 0
lwrist 66.1105 0 0
lhand -12.6698 49.4275 0
lfingers 7.12502 0 0
lthumb 13.4161 79.0232 0
rclavicle 1.23218e-14 -3.22758e-15 0
rhumerus 22.6376 8.59186 -49.1351
rradius 63.9451 0 0
rwrist -9.31755 0 0
rhand -18.3197 -19.1368 0
rfingers 7.12502 0 0
rthumb 7.91438 -48.2667 0
